<?xml version="1.0" standalone="no"?>
<!DOCTYPE svg PUBLIC "-//W3C//DTD SVG 20010904//EN"
 "http://www.w3.org/TR/2001/REC-SVG-20010904/DTD/svg10.dtd">
<svg version="1.0" xmlns="http://www.w3.org/2000/svg"
 width="512.000000pt" height="512.000000pt" viewBox="0 0 512.000000 512.000000"
 preserveAspectRatio="xMidYMid meet">
<metadata>
Created by potrace 1.11, written by Peter Selinger 2001-2013
</metadata>
<g transform="translate(0.000000,512.000000) scale(0.100000,-0.100000)"
fill="#000000" stroke="none">
<path d="M64 4470 c-30 -12 -64 -58 -64 -87 0 -41 29 -90 62 -104 24 -10 267
-13 1122 -13 916 -1 1094 -3 1112 -15 52 -34 49 68 50 -1729 0 -920 -2 -1669
-6 -1665 -3 4 -12 26 -19 48 -28 85 -68 151 -127 211 -101 101 -207 151 -346
160 -240 17 -461 -132 -539 -363 l-21 -60 -111 2 c-62 1 -115 3 -119 3 -3 1
-10 17 -13 35 -30 136 -172 294 -312 347 -75 28 -84 30 -172 36 -150 10 -293
-45 -401 -155 -114 -115 -163 -241 -155 -401 9 -195 116 -360 289 -446 205
-101 443 -68 602 84 76 73 111 133 159 270 3 9 36 12 119 12 l114 0 21 -63
c49 -145 161 -264 306 -324 190 -79 422 -32 570 115 63 62 99 119 131 206 l22
61 544 3 544 2 12 -47 c49 -181 223 -336 418 -372 107 -20 253 7 359 66 104
57 223 213 249 325 l6 27 208 3 c197 3 210 4 257 28 64 31 124 91 155 155 l25
50 0 1132 0 1133 -28 27 -27 28 -185 3 c-102 2 -185 6 -186 10 0 4 -2 22 -4
40 -2 19 -11 71 -20 115 -105 534 -519 960 -1050 1081 -111 26 -187 33 -372
35 -192 2 -221 -5 -244 -62 -10 -23 -13 -429 -13 -1793 0 -970 -2 -1765 -5
-1766 -3 0 -99 -2 -213 -3 l-208 -2 -1 1674 c-1 920 -2 1676 -3 1681 -1 4 -6
22 -10 40 -19 80 -86 159 -171 202 l-50 25 -1120 2 c-616 1 -1130 -2 -1141 -7z
m3411 -215 c500 -73 894 -458 988 -967 8 -43 12 -80 9 -83 -3 -3 -290 -5 -639
-5 l-633 0 0 534 0 534 113 -3 c61 -1 135 -6 162 -10z m1431 -1479 l-1 -211
-605 -5 c-333 -3 -613 -9 -622 -13 -9 -5 -25 -25 -35 -45 -16 -34 -18 -68 -17
-379 1 -376 2 -380 63 -406 21 -9 190 -12 623 -11 l595 0 -1 -390 c-2 -425 -1
-422 -58 -449 -20 -9 -77 -13 -204 -13 l-177 1 -4 24 c-7 47 -73 169 -119 220
-113 126 -244 181 -416 176 -108 -3 -190 -28 -281 -89 -94 -62 -183 -183 -208
-279 -6 -26 -14 -48 -18 -49 -3 0 -54 -2 -113 -3 l-108 -2 0 1062 c0 584 2
1064 5 1067 3 2 387 4 853 4 l849 0 -1 -210z m0 -640 l-1 -211 -532 -3 -533
-2 0 213 0 213 533 0 534 0 -1 -210z m-4241 -1100 c66 -30 124 -87 156 -153
34 -68 34 -207 1 -274 -29 -59 -89 -119 -149 -150 -68 -34 -205 -35 -276 -1
-199 95 -243 355 -87 512 97 97 233 122 355 66z m1280 0 c65 -30 124 -87 156
-152 21 -42 24 -63 23 -144 0 -85 -4 -100 -28 -142 -66 -114 -175 -174 -299
-166 -89 6 -152 33 -207 88 -178 178 -89 485 157 538 61 14 140 5 198 -22z
m2132 0 c75 -35 125 -84 158 -157 72 -161 7 -342 -152 -420 -68 -34 -207 -35
-274 -1 -59 29 -122 92 -151 150 -33 69 -33 207 1 277 77 157 260 223 418 151z"/>
<path d="M478 3823 c-15 -9 -33 -30 -39 -47 -10 -22 -13 -261 -13 -995 -1
-531 1 -975 2 -987 11 -64 89 -104 149 -76 67 31 64 -24 61 1071 l-3 991 -26
26 c-34 33 -94 41 -131 17z"/>
<path d="M1549 3825 c-59 -32 -57 10 -55 -1060 1 -767 4 -985 14 -1002 42 -73
147 -71 186 5 19 39 18 1985 -2 2019 -15 27 -62 53 -94 53 -13 -1 -35 -7 -49
-15z"/>
</g>
</svg>
